<svg width="32" height="32" viewBox="0 0 32 32" fill="none" xmlns="http://www.w3.org/2000/svg">
<circle cx="16" cy="16" r="16" fill="#F1F2F3"/>
<path d="M23.25 14.5703C23.25 14.043 23.18 13.5775 23.04 13.1738C22.9001 12.7702 22.721 12.4495 22.5029 12.2119C22.2848 11.9743 22.0195 11.7806 21.707 11.6309C21.3945 11.4811 21.0885 11.3802 20.7891 11.3281C20.4896 11.276 20.1706 11.25 19.832 11.25C19.4935 11.25 19.1289 11.333 18.7383 11.499C18.3477 11.665 17.988 11.8734 17.6592 12.124C17.3304 12.3747 17.0488 12.609 16.8145 12.8271C16.5801 13.0452 16.3848 13.2454 16.2285 13.4277C16.1113 13.571 15.9518 13.6426 15.75 13.6426C15.5482 13.6426 15.3887 13.571 15.2715 13.4277C15.1152 13.2454 14.9199 13.0452 14.6855 12.8271C14.4512 12.609 14.1696 12.3747 13.8408 12.124C13.512 11.8734 13.1523 11.665 12.7617 11.499C12.3711 11.333 12.0065 11.25 11.668 11.25C11.3294 11.25 11.0104 11.276 10.7109 11.3281C10.4115 11.3802 10.1055 11.4811 9.79297 11.6309C9.48047 11.7806 9.21517 11.9743 8.99707 12.2119C8.77897 12.4495 8.59993 12.7702 8.45996 13.1738C8.31999 13.5775 8.25 14.043 8.25 14.5703C8.25 15.6641 8.85872 16.8197 10.0762 18.0371L15.75 23.5059L21.4141 18.0469C22.638 16.8229 23.25 15.6641 23.25 14.5703ZM24.5 14.5703C24.5 16.0091 23.7546 17.474 22.2637 18.9648L16.1797 24.8242C16.0625 24.9414 15.9193 25 15.75 25C15.5807 25 15.4375 24.9414 15.3203 24.8242L9.22656 18.9453C9.16146 18.8932 9.07194 18.8086 8.95801 18.6914C8.84408 18.5742 8.66341 18.361 8.41602 18.0518C8.16862 17.7425 7.94727 17.4251 7.75195 17.0996C7.55664 16.7741 7.38249 16.3802 7.22949 15.918C7.0765 15.4557 7 15.0065 7 14.5703C7 13.138 7.41341 12.0182 8.24023 11.2109C9.06706 10.4036 10.2096 10 11.668 10C12.0716 10 12.4834 10.07 12.9033 10.21C13.3232 10.3499 13.7139 10.5387 14.0752 10.7764C14.4365 11.014 14.7474 11.237 15.0078 11.4453C15.2682 11.6536 15.5156 11.875 15.75 12.1094C15.9844 11.875 16.2318 11.6536 16.4922 11.4453C16.7526 11.237 17.0635 11.014 17.4248 10.7764C17.7861 10.5387 18.1768 10.3499 18.5967 10.21C19.0166 10.07 19.4284 10 19.832 10C21.2904 10 22.4329 10.4036 23.2598 11.2109C24.0866 12.0182 24.5 13.138 24.5 14.5703Z" fill="black"/>
</svg>
