<svg width="17" height="16" viewBox="0 0 17 16" fill="none" xmlns="http://www.w3.org/2000/svg">
<path id="Vector" d="M3.96591 13L0.965912 16V2C0.965912 0.9 1.86591 0 2.96591 0H14.9659C16.0559 0 16.9659 0.91 16.9659 2V11C16.9659 12.09 16.0559 13 14.9659 13H3.96591ZM11.7159 9.03C12.4359 8.2 12.6959 7.17 12.6959 6.09C12.6959 4.44 11.9959 2.87 10.3959 2.26C9.42077 1.90371 8.35105 1.90371 7.37591 2.26C6.63348 2.57049 6.00879 3.10867 5.59185 3.79698C5.17491 4.48529 4.98725 5.28819 5.05591 6.09C5.05591 7.37667 5.39925 8.37667 6.08591 9.09C6.46154 9.45517 6.90863 9.73873 7.39908 9.92287C7.88954 10.107 8.41277 10.1877 8.93591 10.16C9.56258 10.16 10.1326 10.0467 10.6459 9.82C11.2926 10.26 11.6459 10.4933 11.7059 10.52C11.9326 10.6533 12.1659 10.7533 12.4059 10.82L12.9959 9.69C12.5396 9.53292 12.1085 9.31061 11.7159 9.03ZM10.4459 8.13C9.99524 7.77967 9.48791 7.50909 8.94591 7.33L8.49591 8.23C8.82924 8.35 9.15591 8.51667 9.47591 8.73C9.27591 8.79667 9.05924 8.83333 8.82591 8.84C8.21258 8.84 7.70591 8.61333 7.30591 8.16C6.44591 7.16 6.44591 5.04 7.30591 4.05C8.10591 3.15 9.65591 3.15 10.4559 4.05C11.3559 5.06 11.3159 7.08 10.4459 8.13Z" fill="#0C0D0E"/>
</svg>
