<svg width="19" height="19" viewBox="0 0 19 19" fill="none" xmlns="http://www.w3.org/2000/svg">
<path d="M18.0897 16.8L12.9497 11.62H12.5997C13.7001 10.2164 14.2232 8.44566 14.0623 6.66939C13.9013 4.89312 13.0684 3.24528 11.7335 2.06234C10.3987 0.87941 8.66272 0.250605 6.87998 0.304327C5.09724 0.358048 3.40224 1.09024 2.14108 2.3514C0.879915 3.61256 0.147721 5.30757 0.0939995 7.09031C0.0402783 8.87305 0.669082 10.6091 1.85202 11.9439C3.03495 13.2787 4.68279 14.1116 6.45906 14.2726C8.23533 14.4336 10.0061 13.9104 11.4097 12.81V13.16L16.5897 18.3L18.0897 16.8ZM12.0897 7.30001C12.0897 8.62609 11.5629 9.89786 10.6252 10.8355C9.68753 11.7732 8.41576 12.3 7.08968 12.3C5.7636 12.3 4.49183 11.7732 3.55414 10.8355C2.61646 9.89786 2.08968 8.62609 2.08968 7.30001C2.08968 5.97392 2.61646 4.70215 3.55414 3.76447C4.49183 2.82679 5.7636 2.30001 7.08968 2.30001C8.41576 2.30001 9.68753 2.82679 10.6252 3.76447C11.5629 4.70215 12.0897 5.97392 12.0897 7.30001Z" fill="#636B74"/>
</svg>
